<svg width="400" height="400" viewBox="0 0 400 400" fill="none" xmlns="http://www.w3.org/2000/svg">
<rect width="400" height="400" fill="white"/>
<rect width="400" height="400" fill="#20BEFF"/>
<path d="M264.015 308.301L199.698 227.98L261.369 168.005C262.515 166.808 262.118 163.35 259.031 163.35H228.504C226.96 163.35 225.416 164.149 223.872 165.7L165.511 224.965V89.3246C165.511 87.1084 164.408 86 162.202 86H139.309C137.103 86 136 87.1084 136 89.3246V309.63C136 311.846 137.103 312.955 139.309 312.955H162.202C164.408 312.955 165.511 311.846 165.511 309.63V261.313L179.098 248.327L227.842 310.65C229.166 312.202 230.71 313 232.475 313H261.987C263.53 313 264.412 312.556 264.633 311.67L264.015 308.301Z" fill="white"/>
</svg>
